<svg width="40" height="21" viewBox="0 0 40 21" fill="none" xmlns="http://www.w3.org/2000/svg">
<path d="M13.365 0.916931V2.35004L0.905975 0.916931H13.365ZM13.365 3.97424V5.40735L0.905975 3.97424H13.365ZM13.365 7.03154V8.46465L0.905975 7.03154H13.365ZM13.365 10.0888V11.522L0.905975 10.0888H13.365ZM13.365 13.1462V14.5793L0.905975 13.1462H13.365ZM13.365 16.2035V17.6366L0.905975 16.2035H13.365ZM13.365 19.2926V20.7257L0.905975 19.2926H13.365ZM24.6193 20.8213V13.4965H24.2706L21.6393 20.8213H14.3161V0.916931H20.6248L20.0542 12.0315H20.2444L24.3657 0.916931H29.1528V12.0315H29.343L32.7351 0.916931H39.0439L32.6083 20.8213H24.6193Z" fill="white"/>
</svg>
